<?xml version="1.0" encoding="UTF-8"?>
<svg id="Layer_1" data-name="Layer 1" xmlns="http://www.w3.org/2000/svg" viewBox="0 0 654.39 204.99">
  <defs>
    <style>
      .cls-1 {
        fill: #231f20;
      }

      .cls-1, .cls-2 {
        stroke-width: 0px;
      }

      .cls-2 {
        fill: #ce0e2d;
      }
    </style>
  </defs>
  <g>
    <g>
      <path class="cls-1" d="M409.7,179.33h-5.68v15.03c-1.76.17-5.21.43-10.27.43-3.65,0-7.03-.16-10.3-.49,0-1.94.03-14.97.03-14.97h-6.94v20.23l.93.23c.22.06,5.57,1.35,16.27,1.35h0c10.9.04,16.05-1.3,16.26-1.36l.91-.24v-20.21h-1.22Z"/>
      <path class="cls-1" d="M419.36,180.68l-.93.23-.03,18.66.95.22c.23.05,5.65,1.31,16.06,1.35,10.36,0,15.78-1.25,16.01-1.31l.94-.22v-6.53l-1.51.38c-.05.01-5.48,1.36-15.56,1.36-4.98,0-8.25-.24-10.02-.43v-8.29c2.23-.23,5.57-.47,10.11-.47,9.82,0,15.45,1.34,15.51,1.36l1.51.37v-1.59s-.05-4.87-.05-4.87l-.92-.23c-.22-.06-5.54-1.35-16.05-1.35s-15.8,1.29-16.02,1.35"/>
      <path class="cls-1" d="M461.25,180.76l-.91.24v18.63l.94.23c.22.05,5.53,1.31,16.04,1.35,10.39,0,15.82-1.25,16.04-1.31l.94-.22v-18.74l-.93-.23c-.22-.06-5.51-1.35-16.05-1.35s-15.86,1.34-16.07,1.4M487.54,185.62v-.04l-.06,9.49c-2.23.25-5.55.54-10.2.54-5.27,0-9.02-.4-10.25-.54l.03-9.49c1.15-.14,4.62-.54,10.23-.54,4.59,0,7.97.29,10.26.58"/>
      <path class="cls-1" d="M362.1,180.55s0,3.41,0,5.64c-2.38-1.25-5.72-2.71-10.01-3.88-10.56-2.89-15.81-2.92-16.03-2.92h-1.22v21.89h6.93v-14.89c1.68.29,4.77.9,8.68,2.04,6.27,1.83,10.37,4.71,11.64,5.69,0,.98,0,6.8,0,6.8h7.11v-21.63h-7.12s0,1.24,0,1.24Z"/>
      <path class="cls-1" d="M529.24,189.02c-1.87.29-5.13.67-10.19.64l-10.63-.56v-3.34c1.16-.16,4.65-.58,10.66-.58,4.79,0,8.29.29,10.16.62v3.22ZM502.5,181.05l-.69.18v19.53h6.33s0-5.09,0-6.42c1.73-.03,5.86.01,10.43.92,5.41,1.08,9.1,2.6,10.36,3.28,0,.61,0,2.57,0,2.57h7.02l.03-5.14-.4-.28c-.11-.08-2.14-1.46-6.15-2.97,3.53-.36,5.39-.8,5.49-.82l.71-.17v-10.51l-.69-.18c-.23-.06-5.63-1.42-16.17-1.42s-16.01,1.36-16.24,1.42"/>
      <path class="cls-1" d="M540.53,184.41c-1.76,0-3.19-1.46-3.19-3.26s1.43-3.26,3.19-3.26,3.19,1.46,3.19,3.26-1.43,3.26-3.19,3.26ZM540.53,178.11c-1.64,0-2.97,1.36-2.97,3.04s1.33,3.04,2.97,3.04,2.97-1.36,2.97-3.04-1.33-3.04-2.97-3.04Z"/>
      <path class="cls-1" d="M539.83,180.79h.55c.35,0,.58-.02.66-.05.09-.03.16-.08.21-.16.05-.07.08-.17.08-.28,0-.13-.03-.23-.1-.3-.07-.08-.16-.13-.28-.15-.06,0-.24-.01-.54-.01h-.58v.95ZM539.09,182.94v-3.73h1.56c.39,0,.67.03.85.1.18.07.32.19.43.36.11.17.16.37.16.59,0,.28-.08.51-.24.7-.16.18-.4.3-.72.35.16.09.29.2.4.31.1.11.24.32.42.61l.45.73h-.88l-.53-.81c-.19-.29-.32-.47-.39-.55-.07-.08-.14-.13-.22-.15-.08-.03-.2-.04-.37-.04h-.15v1.56h-.74Z"/>
    </g>
    <g>
      <path class="cls-1" d="M316.6,199.08c.37.3.81.45,1.33.45.62,0,1.23-.15,1.81-.44.98-.49,1.48-1.29,1.48-2.4v-1.45c-.22.14-.49.26-.84.35-.34.09-.67.16-1,.2l-1.07.14c-.64.09-1.12.22-1.45.41-.55.31-.82.82-.82,1.5,0,.52.19.93.56,1.23M320.32,194.2c.41-.05.68-.23.82-.52.08-.16.12-.39.12-.69,0-.62-.21-1.07-.64-1.35-.43-.28-1.04-.42-1.84-.42-.92,0-1.58.26-1.96.77-.22.28-.36.7-.42,1.26h-1.65c.03-1.33.45-2.25,1.26-2.77.81-.52,1.75-.78,2.81-.78,1.24,0,2.24.24,3.02.72.76.48,1.15,1.23,1.15,2.25v6.2c0,.19.04.34.11.45.08.12.23.17.48.17.08,0,.17,0,.26-.01.1-.01.2-.02.32-.05v1.33c-.28.08-.49.13-.63.15-.14.02-.34.03-.59.03-.61,0-1.05-.22-1.33-.66-.15-.24-.25-.57-.31-1-.36.48-.88.9-1.55,1.26-.68.35-1.42.53-2.23.53-.98,0-1.78-.3-2.4-.91-.62-.61-.93-1.36-.93-2.27,0-1,.3-1.77.91-2.32.61-.55,1.41-.89,2.4-1.01l2.82-.36Z"/>
      <g>
        <path class="cls-1" d="M627.93,189.82c-.25.69-.8,2.26-1.66,4.72-.64,1.85-1.18,3.36-1.61,4.52-1.02,2.74-1.74,4.42-2.16,5.02-.42.6-1.14.9-2.16.9-.25,0-.44-.01-.58-.03-.13-.02-.3-.06-.49-.11v-1.65c.31.09.53.14.67.16.14.02.26.03.36.03.33,0,.57-.06.72-.17.15-.11.28-.25.39-.41.03-.05.15-.33.35-.82.2-.5.35-.86.44-1.1l-3.9-11.07h2.01l2.82,8.76,2.84-8.76h1.96"/>
        <path class="cls-1" d="M554.68,190.4c.74.59,1.19,1.6,1.34,3.04h-1.72c-.1-.66-.34-1.21-.72-1.65-.37-.44-.97-.66-1.8-.66-1.13,0-1.94.56-2.42,1.69-.31.73-.47,1.63-.47,2.7s.22,1.98.67,2.72c.45.73,1.15,1.1,2.11,1.1.73,0,1.32-.23,1.75-.69.43-.46.72-1.08.89-1.88h1.72c-.2,1.43-.69,2.47-1.48,3.13-.79.66-1.79.99-3.02.99-1.38,0-2.47-.51-3.3-1.54-.82-1.03-1.23-2.31-1.23-3.85,0-1.89.45-3.36,1.35-4.41.9-1.05,2.04-1.58,3.43-1.58,1.19,0,2.15.29,2.9.88"/>
        <path class="cls-1" d="M564.33,198.04c.43-.91.65-1.91.65-3.02,0-1-.16-1.82-.47-2.45-.49-.99-1.34-1.48-2.55-1.48-1.07,0-1.85.42-2.33,1.26-.49.84-.73,1.86-.73,3.05s.24,2.1.73,2.86c.48.76,1.25,1.14,2.31,1.14,1.16,0,1.96-.45,2.39-1.36M565.43,190.9c.93.92,1.4,2.28,1.4,4.07s-.41,3.16-1.23,4.29c-.82,1.13-2.09,1.69-3.82,1.69-1.44,0-2.58-.5-3.43-1.5-.84-1-1.27-2.34-1.27-4.03,0-1.8.44-3.24,1.34-4.31.89-1.07,2.09-1.61,3.6-1.61,1.35,0,2.49.46,3.42,1.39"/>
        <path class="cls-1" d="M569,189.82h1.75v1.53c.42-.53.8-.92,1.14-1.16.58-.41,1.25-.61,1.99-.61.84,0,1.51.21,2.03.63.29.24.55.6.78,1.06.39-.58.86-1,1.39-1.28.53-.28,1.13-.42,1.79-.42,1.42,0,2.38.52,2.89,1.57.27.56.41,1.32.41,2.27v7.16h-1.84v-7.47c0-.71-.17-1.21-.52-1.47-.35-.27-.78-.4-1.28-.4-.69,0-1.29.24-1.8.71-.5.48-.75,1.27-.75,2.38v6.26h-1.8v-7.02c0-.73-.09-1.26-.26-1.6-.27-.5-.77-.75-1.5-.75-.67,0-1.28.27-1.83.79-.55.53-.82,1.49-.82,2.87v5.71h-1.77v-10.76Z"/>
        <path class="cls-1" d="M592.29,198.3c.55-.71.82-1.76.82-3.17,0-.86-.12-1.59-.36-2.21-.46-1.18-1.3-1.78-2.53-1.78s-2.07.63-2.53,1.88c-.24.67-.36,1.52-.36,2.55,0,.83.12,1.54.36,2.12.46,1.11,1.3,1.67,2.53,1.67.83,0,1.52-.35,2.07-1.06M585.63,189.87h1.73v1.43c.36-.49.75-.87,1.17-1.13.6-.4,1.3-.6,2.11-.6,1.2,0,2.21.47,3.05,1.4.83.93,1.25,2.27,1.25,4,0,2.35-.6,4.02-1.81,5.02-.76.64-1.65.96-2.67.96-.79,0-1.47-.18-2-.53-.32-.2-.67-.55-1.06-1.03v5.49h-1.77v-14.99Z"/>
        <path class="cls-1" d="M598.9,198.95c.37.3.81.45,1.33.45.62,0,1.23-.15,1.81-.44.98-.49,1.48-1.29,1.48-2.4v-1.45c-.22.14-.49.26-.84.35-.34.09-.67.16-1,.2l-1.07.14c-.64.09-1.12.22-1.45.41-.55.31-.82.82-.82,1.5,0,.52.19.93.56,1.23M602.63,194.07c.41-.05.68-.23.82-.52.08-.16.12-.39.12-.69,0-.62-.21-1.07-.64-1.35-.43-.28-1.04-.42-1.84-.42-.92,0-1.58.26-1.96.77-.22.28-.36.7-.42,1.26h-1.65c.03-1.33.45-2.25,1.26-2.77.81-.52,1.75-.78,2.81-.78,1.24,0,2.24.24,3.02.72.76.48,1.15,1.23,1.15,2.25v6.2c0,.19.04.34.11.45.08.12.23.17.48.17.08,0,.17,0,.26-.01.1-.01.2-.02.32-.05v1.33c-.28.08-.49.13-.63.15-.14.02-.34.03-.59.03-.61,0-1.05-.22-1.33-.66-.15-.24-.25-.57-.31-1-.36.48-.88.9-1.55,1.26-.68.35-1.42.53-2.23.53-.98,0-1.78-.3-2.4-.91-.62-.61-.93-1.36-.93-2.27,0-1,.3-1.77.91-2.32.61-.55,1.41-.89,2.4-1.01l2.82-.36Z"/>
        <path class="cls-1" d="M608.19,189.82h1.68v1.53c.5-.63,1.02-1.08,1.58-1.36.56-.27,1.18-.41,1.86-.41,1.5,0,2.51.53,3.03,1.6.29.58.43,1.42.43,2.5v6.9h-1.8v-6.78c0-.66-.09-1.19-.28-1.59-.31-.67-.88-1-1.71-1-.42,0-.76.04-1.03.13-.49.15-.91.44-1.28.88-.3.35-.49.72-.58,1.1-.09.38-.13.92-.13,1.62v5.63h-1.77v-10.76Z"/>
      </g>
    </g>
  </g>
  <g>
    <path class="cls-1" d="M81.87,56.99h-33.21v-28.87h-14.64v92.19h14.64v-35.26h33.21v41.66l-22.48,21.45H24.33L0,126.7V21.72L22.27.28h37.13l22.48,21.45v35.27Z"/>
    <path class="cls-1" d="M129.3,148.15h-34.03v-28.47h34.03v28.47Z"/>
    <path class="cls-1" d="M227.87,148.15h-34.03v-60.02h-14.23v60.02h-34.02V.28h34.02v60.01h14.23V.28h34.03v147.87Z"/>
    <path class="cls-1" d="M277.77,148.15h-34.03v-28.47h34.03v28.47Z"/>
    <path class="cls-1" d="M343.84,148.15h-49.34V.28h49.34v147.87Z"/>
    <path class="cls-1" d="M395.3,148.15h-34.03v-28.47h34.03v28.47Z"/>
  </g>
  <g>
    <g>
      <rect class="cls-2" x="559.57" y="102.75" width="68.5" height="45.67"/>
      <rect class="cls-2" x="485.35" y="51.38" width="68.5" height="45.67"/>
      <rect class="cls-2" x="559.57" y="51.38" width="68.5" height="45.67"/>
      <rect class="cls-2" x="485.35" y="102.75" width="68.5" height="45.67"/>
      <rect class="cls-2" x="411.14" y="102.75" width="68.5" height="45.67"/>
      <rect class="cls-2" x="411.14" y="51.38" width="68.5" height="45.67"/>
      <rect class="cls-2" x="411.14" width="68.5" height="45.67"/>
      <rect class="cls-2" x="485.35" width="68.5" height="45.67"/>
      <rect class="cls-2" x="559.57" width="68.5" height="45.67"/>
    </g>
    <path class="cls-1" d="M638.75,6.71c.43-.98,1.02-1.83,1.76-2.56.74-.72,1.61-1.29,2.6-1.7.99-.41,2.04-.62,3.15-.62s2.16.2,3.14.62c.98.41,1.84.98,2.58,1.7.74.72,1.32,1.57,1.75,2.56.43.98.65,2.04.65,3.18s-.22,2.25-.65,3.24c-.43.99-1.02,1.85-1.75,2.58-.73.73-1.59,1.29-2.58,1.7-.98.41-2.03.61-3.14.61s-2.16-.2-3.15-.61c-.99-.4-1.86-.97-2.6-1.7-.74-.73-1.33-1.59-1.76-2.58-.43-.99-.65-2.07-.65-3.24s.22-2.2.65-3.18ZM640.08,12.65c.34.84.81,1.58,1.41,2.2.6.62,1.31,1.11,2.12,1.46.81.35,1.7.53,2.65.53s1.81-.18,2.62-.53c.81-.35,1.51-.84,2.11-1.46.6-.62,1.07-1.35,1.41-2.2.34-.85.51-1.77.51-2.76s-.17-1.87-.51-2.71c-.34-.84-.81-1.56-1.41-2.18-.6-.61-1.3-1.1-2.11-1.45-.81-.35-1.68-.53-2.62-.53s-1.84.18-2.65.53c-.82.35-1.52.84-2.12,1.45-.6.61-1.07,1.34-1.41,2.18-.34.84-.51,1.74-.51,2.71s.17,1.92.51,2.76ZM646.76,5.19c1.13,0,1.96.22,2.5.67.54.45.81,1.13.81,2.04,0,.85-.24,1.48-.71,1.87-.48.4-1.07.63-1.78.7l2.71,4.18h-1.58l-2.57-4.07h-1.56v4.07h-1.47V5.19h3.66ZM646.12,9.39c.33,0,.65-.01.94-.03.29-.02.56-.08.79-.18.23-.1.41-.26.55-.47.14-.21.21-.5.21-.88,0-.32-.06-.57-.19-.76-.12-.18-.28-.33-.48-.43s-.42-.17-.67-.21c-.25-.03-.5-.05-.75-.05h-1.95v3.01h1.54Z"/>
  </g>
</svg>