<?xml version="1.0" encoding="UTF-8" standalone="no"?>
<svg
   xmlns:dc="http://purl.org/dc/elements/1.1/"
   xmlns:cc="http://creativecommons.org/ns#"
   xmlns:rdf="http://www.w3.org/1999/02/22-rdf-syntax-ns#"
   xmlns:svg="http://www.w3.org/2000/svg"
   xmlns="http://www.w3.org/2000/svg"
   id="svg158393"
   xml:space="preserve"
   viewBox="0 0 1024 768"
   y="0px"
   x="0px"
   version="1.1"><metadata
   id="metadata158399"><rdf:RDF><cc:Work
       rdf:about=""><dc:format>image/svg+xml</dc:format><dc:type
         rdf:resource="http://purl.org/dc/dcmitype/StillImage" /></cc:Work></rdf:RDF></metadata><defs
   id="defs158397" />
<rect
   id="rect158374"
   height="768"
   width="1024"
   fill="#5cdfde" />

 
 <g
   style="fill:#262827;stroke-miterlimit:2"
   transform="matrix(1.1852,0,0,1.1852,-94.841,-70.283)"
   stroke-miterlimit="2"
   id="logo-group">
  <path
   d="m 354.21,425.84 v 11.568 c -2.544,2.064 -5.712,3.072 -9.552,3.072 -2.88,0 -5.472,-0.624 -7.776,-1.92 -2.304,-1.296 -4.128,-3.072 -5.472,-5.328 -1.344,-2.256 -1.968,-4.752 -1.968,-7.536 0,-2.784 0.624,-5.28 1.968,-7.536 1.296,-2.256 3.12,-4.032 5.424,-5.328 2.304,-1.248 4.944,-1.92 7.824,-1.92 2.112,0 4.032,0.336 5.76,0.96 1.728,0.624 3.312,1.632 4.752,3.024 l 1.536,-1.632 c -1.488,-1.488 -3.264,-2.64 -5.328,-3.408 -2.064,-0.768 -4.32,-1.2 -6.768,-1.2 -3.36,0 -6.384,0.768 -9.072,2.208 -2.688,1.488 -4.752,3.504 -6.288,6.096 -1.536,2.592 -2.256,5.52 -2.256,8.736 0,3.264 0.72,6.144 2.256,8.736 1.536,2.592 3.6,4.656 6.288,6.096 2.688,1.488 5.664,2.208 9.024,2.208 2.304,0 4.512,-0.336 6.624,-1.104 2.112,-0.72 3.888,-1.776 5.376,-3.216 V 425.84 Z"
   style="font-variant-ligatures:none;stroke-width:0"
   id="path460082" />
  <path
   d="m 379.62,408.89 h -2.448 l -15.456,33.6 h 2.64 l 14.016,-30.912 14.064,30.912 h 2.64 z"
   style="font-variant-ligatures:none;stroke-width:0"
   id="path460084" />
  <path
   d="m 418.89,430.73 c 2.496,-0.72 4.464,-1.968 5.808,-3.792 1.344,-1.824 2.064,-4.032 2.064,-6.72 0,-3.504 -1.2,-6.288 -3.6,-8.304 -2.4,-2.016 -5.712,-3.024 -9.936,-3.024 h -12.048 v 2.208 h 12.048 c 3.552,0 6.288,0.816 8.208,2.4 1.872,1.584 2.832,3.84 2.832,6.72 0,2.928 -0.96,5.184 -2.832,6.768 -1.92,1.584 -4.656,2.352 -8.208,2.352 h -12.048 v 13.152 h 2.448 v -10.992 h 9.6 c 0.96,0 2.064,-0.048 3.264,-0.24 l 8.016,11.232 h 2.784 z"
   style="font-variant-ligatures:none;stroke-width:0"
   id="path460086" />
  <path
   d="m 448.06,408.89 h -2.448 l -15.456,33.6 h 2.64 l 14.016,-30.912 14.064,30.912 h 2.64 z"
   style="font-variant-ligatures:none;stroke-width:0"
   id="path460088" />
  <path
   d="m 493.15,425.84 v 11.568 c -2.544,2.064 -5.712,3.072 -9.552,3.072 -2.88,0 -5.472,-0.624 -7.776,-1.92 -2.304,-1.296 -4.128,-3.072 -5.472,-5.328 -1.344,-2.256 -1.968,-4.752 -1.968,-7.536 0,-2.784 0.624,-5.28 1.968,-7.536 1.296,-2.256 3.12,-4.032 5.424,-5.328 2.304,-1.248 4.944,-1.92 7.824,-1.92 2.112,0 4.032,0.336 5.76,0.96 1.728,0.624 3.312,1.632 4.752,3.024 l 1.536,-1.632 c -1.488,-1.488 -3.264,-2.64 -5.328,-3.408 -2.064,-0.768 -4.32,-1.2 -6.768,-1.2 -3.36,0 -6.384,0.768 -9.072,2.208 -2.688,1.488 -4.752,3.504 -6.288,6.096 -1.536,2.592 -2.256,5.52 -2.256,8.736 0,3.264 0.72,6.144 2.256,8.736 1.536,2.592 3.6,4.656 6.288,6.096 2.688,1.488 5.664,2.208 9.024,2.208 2.304,0 4.512,-0.336 6.624,-1.104 2.112,-0.72 3.888,-1.776 5.376,-3.216 V 425.84 Z"
   style="font-variant-ligatures:none;stroke-width:0"
   id="path460090" />
  <path
   d="m 528.01,424.35 h -21.744 v 2.16 h 21.744 z m 0,-15.456 h -21.744 v 2.208 h 21.744 z m -21.744,31.392 v 2.208 h 21.744 v -2.208 z"
   style="font-variant-ligatures:none;stroke-width:0"
   id="path460092" />
  <path
   d="m 579.7,417.05 c -1.536,-2.544 -3.648,-4.512 -6.336,-6 -2.688,-1.44 -5.808,-2.16 -9.264,-2.16 h -13.296 v 2.208 h 13.104 c 3.072,0 5.808,0.624 8.208,1.872 2.352,1.248 4.176,2.976 5.472,5.136 1.248,2.208 1.92,4.752 1.92,7.584 0,2.88 -0.672,5.376 -1.92,7.584 -1.296,2.208 -3.12,3.936 -5.472,5.184 -2.4,1.248 -5.136,1.824 -8.208,1.824 h -10.65 V 425.69 h -2.448 v 16.8 h 13.296 c 3.456,0 6.576,-0.72 9.264,-2.16 2.688,-1.44 4.8,-3.408 6.336,-5.952 1.488,-2.544 2.256,-5.424 2.256,-8.688 0,-3.216 -0.768,-6.096 -2.256,-8.64 z"
   style="font-variant-ligatures:none;stroke-width:0"
   id="path460094" />
  <path
   d="m 595.79,440.53 c 2.64,1.488 5.616,2.208 8.928,2.208 3.264,0 6.24,-0.72 8.928,-2.208 2.64,-1.44 4.704,-3.504 6.24,-6.096 1.536,-2.592 2.304,-5.472 2.304,-8.736 0,-3.216 -0.76799,-6.144 -2.304,-8.736 -1.53601,-2.592 -3.6,-4.608 -6.24,-6.096 -2.688,-1.44 -5.664,-2.208 -8.928,-2.208 -3.312,0 -6.288,0.768 -8.928,2.256 -2.688,1.488 -4.752,3.504 -6.288,6.096 -1.536,2.592 -2.256,5.52 -2.256,8.688 0,3.216 0.72001,6.096 2.256,8.688 1.53599,2.592 3.6,4.656 6.288,6.144 z m 16.56,-1.968 c -2.304,1.296 -4.848,1.92 -7.632,1.92 -2.832,0 -5.376,-0.624 -7.68,-1.92 -2.304,-1.248 -4.08,-3.024 -5.376,-5.28 -1.344,-2.256 -1.968,-4.8 -1.968,-7.584 0,-2.784 0.624,-5.28 1.968,-7.536 1.296,-2.256 3.072,-4.032 5.376,-5.328 2.304,-1.248 4.848,-1.92 7.68,-1.92 2.784,0 5.328,0.672 7.632,1.92 2.256,1.296 4.032,3.072 5.376,5.328 1.296,2.256 1.968,4.752 1.968,7.536 0,2.784 -0.672,5.328 -1.968,7.584 -1.344,2.256 -3.12,4.032 -5.376,5.28 z"
   style="font-variant-ligatures:none;stroke-width:0"
   id="path460096" />
  <path
   d="m 636,440.53 c 2.64,1.488 5.616,2.208 8.928,2.208 3.264,0 6.24,-0.72 8.928,-2.208 2.64,-1.44 4.704,-3.504 6.24,-6.096 1.536,-2.592 2.304,-5.472 2.304,-8.736 0,-3.216 -0.76799,-6.144 -2.304,-8.736 -1.53601,-2.592 -3.6,-4.608 -6.24,-6.096 -2.688,-1.44 -5.664,-2.208 -8.928,-2.208 -3.312,0 -6.288,0.768 -8.928,2.256 -2.688,1.488 -4.752,3.504 -6.288,6.096 -1.536,2.592 -2.256,5.52 -2.256,8.688 0,3.216 0.72001,6.096 2.256,8.688 1.53599,2.592 3.6,4.656 6.288,6.144 z m 16.56,-1.968 c -2.304,1.296 -4.848,1.92 -7.632,1.92 -2.832,0 -5.376,-0.624 -7.68,-1.92 -2.304,-1.248 -4.08,-3.024 -5.376,-5.28 -1.344,-2.256 -1.968,-4.8 -1.968,-7.584 0,-2.784 0.624,-5.28 1.968,-7.536 1.296,-2.256 3.072,-4.032 5.376,-5.328 2.304,-1.248 4.848,-1.92 7.68,-1.92 2.784,0 5.328,0.672 7.632,1.92 2.256,1.296 4.032,3.072 5.376,5.328 1.296,2.256 1.968,4.752 1.968,7.536 0,2.784 -0.672,5.328 -1.968,7.584 -1.344,2.256 -3.12,4.032 -5.376,5.28 z"
   style="font-variant-ligatures:none;stroke-width:0"
   id="path460098" />
  <path
   d="m 688.61,430.73 c 2.496,-0.72 4.464,-1.968 5.808,-3.792 1.344,-1.824 2.064,-4.032 2.064,-6.72 0,-3.504 -1.2,-6.288 -3.6,-8.304 -2.4,-2.016 -5.712,-3.024 -9.936,-3.024 h -12.048 v 2.208 h 12.048 c 3.552,0 6.288,0.816 8.208,2.4 1.872,1.584 2.832,3.84 2.832,6.72 0,2.928 -0.96,5.184 -2.832,6.768 -1.92,1.584 -4.656,2.352 -8.208,2.352 h -12.048 v 13.152 h 2.448 v -10.992 h 9.6 c 0.96,0 2.064,-0.048 3.264,-0.24 l 8.016,11.232 h 2.784 z"
   style="font-variant-ligatures:none;stroke-width:0"
   id="path460100" />
  <path
   d="m 359.42,342.77 c -3.2947,-5.4569 -7.825,-9.6782 -13.591,-12.87 -5.7658,-3.0888 -12.458,-4.6332 -19.871,-4.6332 h -28.52 v 4.7362 h 28.108 c 6.5894,0 12.458,1.3385 17.606,4.0154 5.045,2.677 8.9575,6.3835 11.737,11.017 2.677,4.7362 4.1184,10.193 4.1184,16.268 0,6.1776 -1.4414,11.532 -4.1184,16.268 -2.7799,4.7362 -6.6924,8.4427 -11.737,11.12 -5.148,2.677 -11.017,3.9125 -17.606,3.9125 h -22.86 v -31.31 h -5.251 v 36.036 h 28.52 c 7.4131,0 14.106,-1.5444 19.871,-4.6332 5.7658,-3.0888 10.296,-7.3102 13.591,-12.767 3.1918,-5.4569 4.8391,-11.634 4.8391,-18.636 0,-6.8983 -1.6474,-13.076 -4.8391,-18.533 z"
   style="font-variant-ligatures:none;stroke:#262827;stroke-width:2.8599999"
   id="path460103" />
  <path
   d="m 389.4,389.93 c 5.045,5.3539 12.149,7.9279 21.313,7.9279 9.0605,0 16.165,-2.574 21.313,-7.9279 5.045,-5.251 7.619,-12.973 7.619,-23.166 v -41.49 h -5.251 v 41.287 c 0,8.8546 -2.0592,15.547 -6.0746,19.871 -4.1184,4.4273 -9.8842,6.5894 -17.503,6.5894 -7.722,0 -13.591,-2.1622 -17.606,-6.5894 -4.1184,-4.3243 -6.0746,-11.017 -6.0746,-19.871 v -41.29 h -5.251 v 41.493 c 0,10.193 2.471,17.915 7.5161,23.166 z"
   style="font-variant-ligatures:none;stroke:#262827;stroke-width:2.8599999"
   id="path460105" />
  <path
   d="m 511.3,331.75 c -5.148,-4.3243 -12.252,-6.4865 -21.313,-6.4865 h -25.843 v 4.7362 h 25.843 c 7.619,0 13.488,1.7503 17.606,5.148 4.0154,3.3977 6.0746,8.2368 6.0746,14.414 0,6.2806 -2.0592,11.12 -6.0746,14.414 -4.1184,3.3977 -9.9871,5.045 -17.606,5.045 h -25.843 v 28.314 h 5.251 v -23.578 h 20.592 c 9.0605,0 16.165,-2.0592 21.313,-6.3835 5.148,-4.3243 7.722,-10.193 7.722,-17.812 0,-7.5161 -2.574,-13.488 -7.722,-17.812 z"
   style="font-variant-ligatures:none;stroke:#262827;stroke-width:2.8599999"
   id="path460107" />
  <path
   d="m 574.73,372.11 c 5.3539,-1.5444 9.5753,-4.2214 12.458,-8.1338 2.8829,-3.9125 4.4273,-8.6486 4.4273,-14.414 0,-7.5161 -2.574,-13.488 -7.722,-17.812 -5.148,-4.3243 -12.252,-6.4865 -21.313,-6.4865 h -25.843 v 4.7362 h 25.843 c 7.619,0 13.488,1.7503 17.606,5.148 4.0154,3.3977 6.0746,8.2368 6.0746,14.414 0,6.2806 -2.0592,11.12 -6.0746,14.517 -4.1184,3.3977 -9.9871,5.045 -17.606,5.045 h -25.843 v 28.211 h 5.251 v -23.578 h 20.592 c 2.0592,0 4.4273,-0.10296 7.0013,-0.5148 l 17.194,24.093 h 5.9717 z"
   style="font-variant-ligatures:none;stroke:#262827;stroke-width:2.8599999"
   id="path460109" />
  <path
   d="m 657.59,358.42 h -46.641 v 4.6332 h 46.641 z m 0,-33.153 h -46.641 v 4.7362 h 46.641 z m -46.641,67.336 v 4.7362 h 46.641 v -4.7362 z"
   style="font-variant-ligatures:none;stroke:#262827;stroke-width:2.8599999"
   id="path460111" />
  <path
   d="m 726.56,358.42 h -46.641 v 4.6332 h 46.641 z m 0,-33.153 h -46.641 v 4.7362 h 46.641 z m -46.641,67.336 v 4.7362 h 46.641 v -4.7362 z"
   style="font-variant-ligatures:none;stroke:#262827;stroke-width:2.8599999"
   id="path460113" />
 </g>

</svg>